<svg width="23" height="23" viewBox="0 0 23 23" fill="none" xmlns="http://www.w3.org/2000/svg">
<path d="M1.36082 10.1613H21.6392C21.9825 10.1613 22.3014 10.2676 22.5388 10.4388C22.8234 10.644 23 10.9413 23 11.2811V12.3834C23 12.7231 22.8234 13.0204 22.5388 13.2257C22.3015 13.3969 21.9824 13.5032 21.6392 13.5032H1.36082C1.01757 13.5032 0.698574 13.3969 0.46114 13.2257C0.17663 13.0204 0 12.7231 0 12.3834V11.2811C0 10.9413 0.176627 10.644 0.46114 10.4388C0.698536 10.2676 1.01755 10.1613 1.36082 10.1613ZM21.6392 11.129H1.36082C1.21919 11.129 1.09733 11.1658 1.01517 11.2251C0.98013 11.2504 0.958359 11.2711 0.958359 11.2811V12.3834C0.958359 12.3934 0.98013 12.4141 1.01517 12.4394C1.09733 12.4986 1.21917 12.5354 1.36082 12.5354H21.6392C21.7808 12.5354 21.9027 12.4987 21.9848 12.4394C22.0199 12.4141 22.0416 12.3934 22.0416 12.3834V11.2811C22.0416 11.2711 22.0199 11.2504 21.9848 11.2251C21.9027 11.1658 21.7808 11.129 21.6392 11.129Z" fill="#212121"/>
<path d="M21.6758 13.0533L21.088 21.363C21.0562 21.813 20.8685 22.2244 20.5748 22.5211C20.2819 22.8168 19.8868 23 19.4352 23H3.56533C3.11373 23 2.71849 22.8169 2.42559 22.5211C2.13192 22.2245 1.94427 21.8132 1.91248 21.363L1.32471 13.0533L2.27931 12.9853L2.86708 21.295C2.88217 21.5084 2.96849 21.7009 3.10317 21.8369C3.22264 21.9575 3.38299 22.0322 3.56533 22.0322H19.4352C19.6175 22.0322 19.7778 21.9575 19.8973 21.8368C20.032 21.7008 20.1184 21.5083 20.1334 21.295L20.7212 12.9853L21.6758 13.0533Z" fill="#212121"/>
<path d="M5.39634 14.9186C5.39634 14.6514 5.1818 14.4348 4.91716 14.4348C4.65253 14.4348 4.43799 14.6514 4.43799 14.9186V20.6167C4.43799 20.8839 4.65253 21.1006 4.91716 21.1006C5.1818 21.1006 5.39634 20.8839 5.39634 20.6167V14.9186Z" fill="#212121"/>
<path d="M8.68736 14.9186C8.68736 14.6514 8.47281 14.4348 8.20818 14.4348C7.94355 14.4348 7.729 14.6514 7.729 14.9186V20.6167C7.729 20.8839 7.94355 21.1006 8.20818 21.1006C8.47281 21.1006 8.68736 20.8839 8.68736 20.6167V14.9186Z" fill="#212121"/>
<path d="M11.9793 14.9186C11.9793 14.6514 11.7648 14.4348 11.5002 14.4348C11.2355 14.4348 11.021 14.6514 11.021 14.9186V20.6167C11.021 20.8839 11.2355 21.1006 11.5002 21.1006C11.7648 21.1006 11.9793 20.8839 11.9793 20.6167V14.9186Z" fill="#212121"/>
<path d="M15.2704 14.9186C15.2704 14.6514 15.0558 14.4348 14.7912 14.4348C14.5266 14.4348 14.312 14.6514 14.312 14.9186V20.6167C14.312 20.8839 14.5266 21.1006 14.7912 21.1006C15.0558 21.1006 15.2704 20.8839 15.2704 20.6167V14.9186Z" fill="#212121"/>
<path d="M18.5624 14.9186C18.5624 14.6514 18.3478 14.4348 18.0832 14.4348C17.8185 14.4348 17.604 14.6514 17.604 14.9186V20.6167C17.604 20.8839 17.8185 21.1006 18.0832 21.1006C18.3478 21.1006 18.5624 20.8839 18.5624 20.6167V14.9186Z" fill="#212121"/>
<path d="M11.9791 0V8.30276H11.0208V0H11.9791Z" fill="#212121"/>
<path d="M9.37842 6.39805L11.4781 8.09431L13.6237 6.39429L14.2152 7.15412L11.7724 9.08961L11.4752 9.32509L11.179 9.0858L8.7832 7.15035L9.37842 6.39805Z" fill="#212121"/>
</svg>
