<svg width="23" height="23" viewBox="0 0 23 23" fill="none" xmlns="http://www.w3.org/2000/svg">
<path d="M9.96664 2.29999H2.30005L13.0335 20.7H20.7L9.96664 2.29999ZM4.96943 3.8334H9.08574L18.0304 19.1666H13.9139L4.96943 3.8334Z" fill="#263238"/>
<path d="M11.5 15.0287L13.558 11.5L14.4452 13.0212L12.3871 16.5499L11.5 15.0287Z" fill="#8BC34A"/>
<path d="M9.44177 11.5L11.5 7.97225L10.6125 6.45081L8.5542 9.97854L9.44177 11.5Z" fill="#8BC34A"/>
<path d="M15.3334 11.5L20.7 2.29999H13.0334L11.5 4.92866L12.3871 6.44988L13.9138 3.8334H18.0299L14.4456 9.97854L15.3334 11.5Z" fill="#8BC34A"/>
<path d="M11.5 18.0711L9.96664 20.7H2.30005L7.66664 11.5L8.55421 13.0212L4.96943 19.1666H9.08574L10.6125 16.5499L11.5 18.0711Z" fill="#8BC34A"/>
</svg>
